<svg xmlns="http://www.w3.org/2000/svg" width="32.623" height="36.157" viewBox="0 0 32.623 36.157"><path class="a" style="fill:#5524fb;" d="M144.009,299.8l-.019-.037a5.157,5.157,0,0,0-7.275-2.265l-4.052,2.336c.017.194.033.408.033.509a4.88,4.88,0,0,1-2.11,4.057,3.407,3.407,0,0,1-1.852.556,3.806,3.806,0,0,1-2.057-.64l-.035-.023-3.48-2.454a1.131,1.131,0,0,1-.294-1.463.9.9,0,0,1,1.318-.326l3.462,2.442a1.737,1.737,0,0,0,1.984.073,2.64,2.64,0,0,0,1.082-1.607h0a2.5,2.5,0,0,0-1.137-2.609l-3.939-2.524a2.158,2.158,0,0,0-1.361-.492h-5.251v10.012h.609l7.559,4.855a2.668,2.668,0,0,0,1.438.457,2.179,2.179,0,0,0,1.261-.4l13.958-9.739A.565.565,0,0,0,144.009,299.8Z" transform="translate(-111.45 -274.502)"/><path class="b" style="fill:#5524fb; opacity:0.3;" d="M4.71,249.162H.955A1.011,1.011,0,0,0,0,250.222v14.755a1.011,1.011,0,0,0,.955,1.06H4.71a1.011,1.011,0,0,0,.955-1.06V250.222A1.011,1.011,0,0,0,4.71,249.162Z" transform="translate(0 -231.589)"/><path class="b" style="fill:#5524fb; opacity:0.3;" d="M226.414,18.7c3.377,0,6.124-3.049,6.124-6.8,0-1.981-1.378-4.879-2.534-6.962-.593-1.069-1.236-2.112-1.81-2.937-.862-1.239-1.261-1.6-1.78-1.6s-.918.358-1.78,1.6c-.574.824-1.217,1.867-1.81,2.937-1.156,2.083-2.534,4.981-2.534,6.962C220.29,15.653,223.037,18.7,226.414,18.7Z" transform="translate(-206.272 -0.409)"/></svg>