<svg xmlns="http://www.w3.org/2000/svg" width="38.472" height="43.347" viewBox="0 0 38.472 43.347"><g transform="translate(-28.775)"><path class="a" d="M44.827,102.032a23.856,23.856,0,0,0-1.543-1.837,2.52,2.52,0,0,0-1.74-1.031,2.52,2.52,0,0,0-1.74,1.03,23.821,23.821,0,0,0-1.543,1.837,69.279,69.279,0,0,0-3.975,5.81c-2.057,3.34-5.509,9.535-5.509,13.5a12.768,12.768,0,1,0,25.535,0c0-3.968-3.451-10.163-5.509-13.5a69.292,69.292,0,0,0-3.975-5.81Z" transform="translate(0 -90.765)"/><path class="a" d="M320.519,4.894a37.431,37.431,0,0,0-2.148-3.139C317.319.394,316.822,0,316.155,0s-1.164.394-2.216,1.755a37.417,37.417,0,0,0-2.148,3.139c-1.376,2.233-3.015,5.344-3.015,7.486a7.379,7.379,0,0,0,14.758,0c0-2.142-1.64-5.254-3.015-7.486Z" transform="translate(-256.287)"/></g></svg>