<svg xmlns="http://www.w3.org/2000/svg" width="14.09" height="15.875" viewBox="0 0 14.09 15.875"><defs><style>.a{fill:#fff;}</style></defs><g transform="translate(-28.775)"><path class="a" d="M34.653,100.214a8.737,8.737,0,0,0-.565-.673.727.727,0,0,0-1.275,0,8.724,8.724,0,0,0-.565.673,25.374,25.374,0,0,0-1.456,2.128c-.753,1.223-2.017,3.492-2.017,4.945a4.676,4.676,0,1,0,9.352,0c0-1.453-1.264-3.722-2.017-4.945A25.376,25.376,0,0,0,34.653,100.214Z" transform="translate(0 -96.088)"/><path class="a" d="M313.076,1.792a13.711,13.711,0,0,0-.787-1.15c-.385-.5-.567-.643-.812-.643s-.426.144-.812.643a13.706,13.706,0,0,0-.787,1.15,6.468,6.468,0,0,0-1.1,2.742,2.7,2.7,0,0,0,5.4,0,6.468,6.468,0,0,0-1.1-2.742Z" transform="translate(-271.316)"/></g></svg>