<svg xmlns="http://www.w3.org/2000/svg" width="30.995" height="38.773" viewBox="0 0 30.995 38.773"><g transform="matrix(0.883, -0.469, 0.469, 0.883, -6.028, 10.509)"><path class="a" style="fill:#fff; opacity:0.3;" d="M2.8,1.041a8.958,8.958,0,0,1,.934,1.3l-2.479.11A8.624,8.624,0,0,0-.195,4.629l4.8-.214A8.161,8.161,0,0,1,4.87,6.857l2-.089A10.275,10.275,0,0,0,5.526,1.241,10.774,10.774,0,0,0,4.536-.2Q3.993.219,3.409.609,3.095.818,2.8,1.041Z" transform="translate(12.265 28.493)"/><path class="a" style=".a,.b{fill:#fff;}.a{opacity:0.3;}" d="M3.563,4.484a11.55,11.55,0,0,1-.995,1.309c.167.119,1.322.864,1.636,1.094A13.74,13.74,0,0,0,5.343,5.311,11.715,11.715,0,0,0,7.131-.318l-2,.089a8.808,8.808,0,0,1-.5,2.552l-4.742.211A6.887,6.887,0,0,0,1.2,4.589Z" transform="translate(13.522 -0.603)"/><path class="b" style="fill:#fff;" d="M6.861,27.684c3.827-2.548,6.123-6.26,6.3-10.185A10.691,10.691,0,0,0,7.772,7.826S3.022,4.852,3.124-.139l-2,.089A10.276,10.276,0,0,0,2.447,5.44a11.274,11.274,0,0,0,2.4,2.922A12.942,12.942,0,0,0-.762,18.12a10.589,10.589,0,0,0,4.812,9.236,14.538,14.538,0,0,0-2.633,3.108A11.723,11.723,0,0,0-.394,36.131l2-.089C1.737,32.866,3.653,29.82,6.861,27.684Zm-5.6-8.627,9.791-.436A9.232,9.232,0,0,1,10.3,21l-8.493.378A8.088,8.088,0,0,1,1.261,19.057Zm9.88-2.554-9.791.436A9.229,9.229,0,0,1,2.1,14.561l8.494-.378A8.085,8.085,0,0,1,11.141,16.5ZM6.427,9.69l.117-.079.111.069A10.321,10.321,0,0,1,9.4,12.122l-5.944.265A13.334,13.334,0,0,1,6.427,9.69ZM5.811,25.921a10.345,10.345,0,0,1-2.816-2.482l5.948-.265a13.365,13.365,0,0,1-3.036,2.743l-.049.034Z" transform="translate(7.858 -0.35)"/><path class="b" style="fill:#fff;" d="M1-.045a1.158,1.158,0,0,0-1.043,1.1A.944.944,0,0,0,.911,2.073,1.158,1.158,0,0,0,1.954.97.944.944,0,0,0,1-.045Z" transform="translate(2.193 30.835)"/><path class="b" style="fill:#fff;" d="M1-.045a1.158,1.158,0,0,0-1.043,1.1A.944.944,0,0,0,.911,2.073,1.158,1.158,0,0,0,1.954.97.944.944,0,0,0,1-.045Z" transform="translate(5.13 5.988)"/><path class="a" style=".a,.b{fill:#fff;}.a{opacity:0.3;}" d="M1-.045a1.158,1.158,0,0,0-1.043,1.1A.944.944,0,0,0,.911,2.073,1.158,1.158,0,0,0,1.954.97.944.944,0,0,0,1-.045Z" transform="translate(-0.698 16.604)"/><path class="b" style="fill:#fff;" d="M1-.045a1.158,1.158,0,0,0-1.043,1.1A.944.944,0,0,0,.911,2.073,1.158,1.158,0,0,0,1.954.97.944.944,0,0,0,1-.045Z" transform="translate(22.973 29.909)"/><path class="b" style="fill:#fff;" d="M1-.045a1.158,1.158,0,0,0-1.043,1.1A.944.944,0,0,0,.911,2.073,1.158,1.158,0,0,0,1.954.97.944.944,0,0,0,1-.045Z" transform="translate(22.117 5.231)"/><path class="a" style=".a,.b{fill:#fff;}.a{opacity:0.3;}" d="M1-.045a1.158,1.158,0,0,0-1.043,1.1A.944.944,0,0,0,.911,2.073,1.158,1.158,0,0,0,1.954.97.944.944,0,0,0,1-.045Z" transform="translate(27.073 15.366)"/></g></svg>